<svg width="1440" height="320" viewBox="0 0 1440 320" xmlns="http://www.w3.org/2000/svg">
  <path fill="#a855f720" fill-opacity="0.2" d="M0,160L48,181.3C96,203,192,245,288,229.3C384,213,480,139,576,122.7C672,107,768,149,864,149.3C960,149,1056,107,1152,112C1248,117,1344,171,1392,197.3L1440,224L1440,320L1392,320C1344,320,1248,320,1152,320C1056,320,960,320,864,320C768,320,672,320,576,320C480,320,384,320,288,320C192,320,96,320,48,320L0,320Z"></path>
  <path fill="#d8b4fe20" fill-opacity="0.1" d="M0,192L48,176C96,160,192,128,288,133.3C384,139,480,181,576,197.3C672,213,768,203,864,186.7C960,171,1056,149,1152,154.7C1248,160,1344,192,1392,208L1440,224L1440,320L1392,320C1344,320,1248,320,1152,320C1056,320,960,320,864,320C768,320,672,320,576,320C480,320,384,320,288,320C192,320,96,320,48,320L0,320Z"></path>
  <path fill="#e9d5ff20" fill-opacity="0.05" d="M0,256L48,229.3C96,203,192,149,288,149.3C384,149,480,203,576,208C672,213,768,171,864,138.7C960,107,1056,85,1152,117.3C1248,149,1344,235,1392,277.3L1440,320L1440,320L1392,320C1344,320,1248,320,1152,320C1056,320,960,320,864,320C768,320,672,320,576,320C480,320,384,320,288,320C192,320,96,320,48,320L0,320Z"></path>
</svg> 